HIERARCHY
ROOT Hips
{
	OFFSET -3.958830 18.904000 13.208200
	CHANNELS 6 Xposition Yposition Zposition Zrotation Yrotation Xrotation 
	JOINT LHipJoint
	{
		OFFSET 0.000000 0.000000 0.000000
		CHANNELS 3 Zrotation Yrotation Xrotation
		JOINT LeftUpLeg
		{
			OFFSET 1.800000 -1.400000 0.085000
			CHANNELS 3 Zrotation Yrotation Xrotation
			JOINT LeftLeg
			{
				OFFSET 2.215000 -6.000000 0.000000
				CHANNELS 3 Zrotation Yrotation Xrotation
				JOINT LeftFoot
				{
					OFFSET 2.500000 -6.900000 0.000000
					CHANNELS 3 Zrotation Yrotation Xrotation
					JOINT LeftToeBase
					{
						OFFSET 0.200000 -0.500000 1.950000
						CHANNELS 3 Zrotation Yrotation Xrotation
						End Site
						{
							OFFSET 0.000000 0.000000 0.000000
						}
					}
				}
			}
		}
	}
	JOINT RHipJoint
	{
		OFFSET 0.000000 0.000000 0.000000
		CHANNELS 3 Zrotation Yrotation Xrotation
		JOINT RightUpLeg
		{
			OFFSET -1.800000 -1.400000 0.085000
			CHANNELS 3 Zrotation Yrotation Xrotation
			JOINT RightLeg
			{
				OFFSET -2.215000 -6.000000 0.000000
				CHANNELS 3 Zrotation Yrotation Xrotation
				JOINT RightFoot
				{
					OFFSET -2.500000 -6.900000 0.000000
					CHANNELS 3 Zrotation Yrotation Xrotation
					JOINT RightToeBase
					{
						OFFSET -0.200000 -0.500000 1.950000
						CHANNELS 3 Zrotation Yrotation Xrotation
						End Site
						{
							OFFSET 0.000000 0.000000 0.000000
						}
					}
				}
			}
		}
	}
	JOINT LowerBack
	{
		OFFSET 0.000000 0.000000 0.000000
		CHANNELS 3 Zrotation Yrotation Xrotation
		JOINT Spine
		{
			OFFSET -0.087000 1.940000 -0.288900
			CHANNELS 3 Zrotation Yrotation Xrotation
			JOINT Spine1
			{
				OFFSET 0.000000 1.950000 0.060000
				CHANNELS 3 Zrotation Yrotation Xrotation
				JOINT Neck
				{
					OFFSET 0.000000 0.000000 0.000000
					CHANNELS 3 Zrotation Yrotation Xrotation
					JOINT Neck1
					{
						OFFSET 0.000000 1.600000 0.340000
						CHANNELS 3 Zrotation Yrotation Xrotation
						JOINT Head
						{
							OFFSET 0.000000 1.667000 -0.240000
							CHANNELS 3 Zrotation Yrotation Xrotation
							End Site
							{
								OFFSET 0.000000 0.000000 0.000000
							}
						}
					}
				}
				JOINT LeftShoulder
				{
					OFFSET 0.000000 0.000000 0.000000
					CHANNELS 3 Zrotation Yrotation Xrotation
					JOINT LeftArm
					{
						OFFSET 2.700000 1.550000 -0.730000
						CHANNELS 3 Zrotation Yrotation Xrotation
						JOINT LeftForeArm
						{
							OFFSET 5.450000 0.000000 0.000000
							CHANNELS 3 Zrotation Yrotation Xrotation
							JOINT LeftHand
							{
								OFFSET 3.450000 0.000000 0.000000
								CHANNELS 3 Zrotation Yrotation Xrotation
								JOINT LeftHandIndex1
								{
									OFFSET 0.750000 0.000000 0.000000
									CHANNELS 3 Zrotation Yrotation Xrotation
									End Site
									{
										OFFSET 0.000000 0.000000 0.000000
									}
								}
							}
						}
					}
				}
				JOINT RightShoulder
				{
					OFFSET 0.000000 0.000000 0.000000
					CHANNELS 3 Zrotation Yrotation Xrotation
					JOINT RightArm
					{
						OFFSET -2.700000 1.550000 -0.730000
						CHANNELS 3 Zrotation Yrotation Xrotation
						JOINT RightForeArm
						{
							OFFSET -5.450000 0.000000 0.000000
							CHANNELS 3 Zrotation Yrotation Xrotation
							JOINT RightHand
							{
								OFFSET -3.450000 0.000000 0.000000
								CHANNELS 3 Zrotation Yrotation Xrotation
								JOINT RightHandIndex1
								{
									OFFSET -0.750000 0.000000 0.000000
									CHANNELS 3 Zrotation Yrotation Xrotation
									End Site
									{
										OFFSET 0.000000 0.000000 0.000000
									}
								}
							}
						}
					}
				}
			}
		}
	}
}
MOTION
Frames: 12
Frame Time: 0.016667
0.090080 17.595440 -1.260180 -1.284955 -30.030965 4.021939 -15.272333 13.632931 2.776210 3.691156 -0.994200 -9.956496 -7.087950 5.421550 9.342613 -0.225274 4.502691 3.448743 -0.111820 -0.282520 -0.284220 18.221044 -10.449887 2.487275 -6.826839 1.717742 -22.819132 2.916381 -3.401051 11.457425 0.405953 -2.992760 3.482725 0.066540 1.108610 0.422610 -3.216397 -2.895355 -6.409074 5.837391 -4.514437 1.274121 -1.072543 -4.959056 7.549379 0.106421 -1.863417 -6.204270 -4.019932 8.807296 22.919401 -3.379280 8.891950 9.916080 -18.206625 -4.482884 1.604683 -36.443348 -15.712885 -0.205870 6.816363 -51.628495 -3.469135 -4.426610 3.332295 -0.330610 0.921650 -0.607350 0.341640 18.571500 3.794502 2.941972 41.114029 5.159110 -7.396911 -2.662699 53.798171 -2.216188 1.775101 -1.982489 -0.296080 0.159530 0.168700 0.134110 
0.089990 17.594610 -1.260490 -1.283101 -30.014892 4.034377 -15.272451 13.631715 2.776026 3.693009 -0.993479 -9.954068 -7.086785 5.416809 9.308643 -0.225607 4.505758 3.451024 -0.115290 -0.286530 -0.288240 18.221278 -10.448378 2.487534 -6.842236 1.720568 -22.844427 2.945686 -3.409860 11.471202 0.407831 -2.996939 3.483104 0.065390 1.115430 0.423380 -3.217390 -2.895544 -6.408271 5.847755 -4.523194 1.260082 -1.066266 -4.970823 7.563372 0.098910 -1.861775 -6.205214 -4.015233 8.824296 22.894908 -3.372050 8.894680 9.983450 -18.171869 -4.485747 1.613924 -36.397212 -15.731971 -0.195015 6.997620 -51.833393 -3.562938 -4.430551 3.330566 -0.332960 0.926190 -0.611110 0.343040 18.552882 3.794516 2.935517 41.037484 5.188427 -7.400402 -2.851303 54.013287 -2.295965 1.770209 -1.983213 -0.298170 0.162220 0.171170 0.135420 
0.089880 17.593410 -1.260910 -1.245557 -29.991014 4.033724 -15.273736 13.632328 2.776314 3.643918 -0.986887 -9.935362 -7.041736 5.396941 9.241451 -0.225627 4.504650 3.457031 -0.121340 -0.293520 -0.294620 18.220407 -10.445377 2.487189 -6.913302 1.715858 -22.882495 3.011295 -3.428048 11.478388 0.411706 -3.004422 3.484684 0.062840 1.126140 0.423680 -3.215001 -2.901841 -6.407450 5.823411 -4.537880 1.239784 -1.037495 -4.989435 7.587306 0.080700 -1.868734 -6.215548 -4.026822 8.854395 22.865450 -3.358200 8.900500 10.111960 -18.114335 -4.501345 1.640420 -36.308927 -15.746188 -0.189078 7.376651 -52.234299 -3.760163 -4.435803 3.326944 -0.337260 0.933310 -0.617440 0.345300 18.534998 3.817973 2.934511 40.861759 5.215626 -7.426721 -3.247825 54.460109 -2.467254 1.761684 -1.983977 -0.301490 0.166570 0.174690 0.137640 
0.090250 17.591770 -1.261880 -1.206912 -29.946907 4.032262 -15.274479 13.632674 2.777277 3.596703 -0.982739 -9.928748 -7.009858 5.380314 9.184076 -0.227496 4.503127 3.460832 -0.125800 -0.297430 -0.300040 18.219887 -10.442618 2.486351 -7.002629 1.708091 -22.930721 3.095152 -3.453523 11.512893 0.415034 -3.013384 3.483645 0.062870 1.134340 0.423250 -3.214140 -2.908390 -6.407029 5.821221 -4.558335 1.226178 -1.020320 -5.012690 7.628893 0.058772 -1.887527 -6.227386 -4.060019 8.882924 22.838879 -3.335390 8.888690 10.189310 -18.033268 -4.529177 1.662651 -36.171484 -15.817402 -0.164294 7.894866 -52.723458 -4.025944 -4.439000 3.322167 -0.340940 0.938820 -0.622340 0.346580 18.498344 3.858800 2.940477 40.610896 5.241613 -7.470823 -3.798972 55.107170 -2.715388 1.750947 -1.985111 -0.304720 0.170810 0.177810 0.139580 
0.090810 17.589810 -1.263320 -1.176352 -29.902720 4.048693 -15.274525 13.630408 2.778805 3.571806 -0.983616 -9.939010 -7.013801 5.370335 9.119371 -0.227109 4.503604 3.464285 -0.129920 -0.301180 -0.305080 18.220227 -10.439365 2.486291 -7.082261 1.707320 -23.014250 3.179109 -3.479887 11.575878 0.418752 -3.023430 3.480906 0.062830 1.142240 0.424020 -3.216321 -2.911124 -6.406761 5.849399 -4.582925 1.204006 -1.017114 -5.040246 7.681777 0.037202 -1.913896 -6.247586 -4.102223 8.893441 22.781569 -3.341220 8.875800 10.308880 -17.912929 -4.558945 1.691816 -36.016668 -15.904670 -0.134581 8.541230 -53.300329 -4.361251 -4.442278 3.320088 -0.347160 0.945260 -0.628150 0.347810 18.419293 3.906384 2.952932 40.338026 5.263276 -7.528475 -4.490676 55.908306 -3.043894 1.738755 -1.989900 -0.306450 0.172370 0.180110 0.141810 
0.090680 17.588200 -1.265220 -1.144487 -29.854410 4.063990 -15.275519 13.628568 2.781559 3.568352 -0.985017 -9.949238 -7.047573 5.366485 9.045184 -0.230550 4.505106 3.464930 -0.131520 -0.301030 -0.306930 18.219818 -10.434173 2.485617 -7.145867 1.707425 -23.087986 3.238869 -3.497534 11.624303 0.421589 -3.029202 3.478625 0.065870 1.145640 0.422010 -3.215718 -2.918669 -6.407770 5.860965 -4.613716 1.190751 -0.993583 -5.073898 7.740697 0.013093 -1.944213 -6.262772 -4.153731 8.898480 22.732282 -3.384080 8.878050 10.331510 -17.791813 -4.589635 1.714045 -35.831395 -16.011353 -0.098866 9.303355 -53.906950 -4.757394 -4.442784 3.314314 -0.350530 0.949040 -0.632190 0.347140 18.345828 3.959448 2.963289 40.001513 5.284471 -7.592160 -5.255219 56.827532 -3.423233 1.724173 -1.993004 -0.309370 0.175170 0.181850 0.141460 
0.090780 17.587010 -1.267250 -1.110082 -29.802288 4.079572 -15.276230 13.626539 2.784429 3.557197 -0.987373 -9.965817 -7.076900 5.361719 8.975426 -0.232647 4.505563 3.465848 -0.134100 -0.302250 -0.308000 18.219475 -10.429244 2.485763 -7.215610 1.706274 -23.164653 3.309374 -3.517936 11.665754 0.423780 -3.034695 3.475482 0.067220 1.148550 0.421110 -3.215514 -2.925136 -6.410044 5.879766 -4.645741 1.183277 -0.984258 -5.108346 7.800764 -0.000491 -1.965467 -6.284731 -4.189819 8.875214 22.692379 -3.461700 8.885840 10.359450 -17.658526 -4.634202 1.736072 -35.617304 -16.137617 -0.058196 10.137151 -54.502355 -5.190057 -4.443533 3.307765 -0.354150 0.952610 -0.635180 0.345920 18.238202 4.017899 2.985077 39.680066 5.293329 -7.672667 -6.104340 57.844946 -3.869579 1.709611 -1.995206 -0.311350 0.177170 0.183810 0.141310 
0.090760 17.585430 -1.269160 -1.085051 -29.733119 4.114133 -15.276550 13.623315 2.786517 3.544813 -0.994212 -10.003280 -7.098894 5.353796 8.907712 -0.233803 4.504473 3.467778 -0.136270 -0.302790 -0.308960 18.219893 -10.423926 2.486299 -7.268928 1.708566 -23.249790 3.370237 -3.533958 11.705352 0.426776 -3.040927 3.471725 0.069390 1.152460 0.421460 -3.217663 -2.929988 -6.410623 5.925135 -4.687324 1.157240 -0.989106 -5.153340 7.869373 -0.013958 -1.990565 -6.308726 -4.228251 8.855576 22.610992 -3.547900 8.898210 10.419760 -17.474860 -4.661891 1.755127 -35.429967 -16.295574 0.003906 11.019393 -55.041720 -5.644713 -4.445577 3.302772 -0.360540 0.957860 -0.638930 0.345560 18.078854 4.058404 3.005433 39.361371 5.298526 -7.738478 -6.915487 58.928729 -4.329744 1.695392 -2.000873 -0.312570 0.177690 0.184570 0.142180 
0.090270 17.584570 -1.270940 -1.066903 -29.662911 4.148275 -15.277072 13.619985 2.789406 3.556476 -1.002406 -10.040631 -7.148437 5.353280 8.841513 -0.235754 4.505935 3.467137 -0.138150 -0.303470 -0.307780 18.219943 -10.418469 2.486766 -7.308372 1.712360 -23.320292 3.423210 -3.549087 11.739960 0.429337 -3.046593 3.467555 0.071040 1.153510 0.422280 -3.218520 -2.935069 -6.412902 5.967428 -4.727519 1.141725 -0.994756 -5.198129 7.931315 -0.010745 -1.997934 -6.328728 -4.237852 8.838485 22.555700 -3.679140 8.964140 10.461080 -17.308843 -4.692823 1.768466 -35.212093 -16.457229 0.062992 12.006704 -55.547695 -6.149238 -4.447364 3.295946 -0.365310 0.962610 -0.641650 0.343000 17.905663 4.088166 3.023215 39.037879 5.309459 -7.800379 -7.787442 60.038758 -4.841416 1.680461 -2.005218 -0.313440 0.176030 0.185430 0.141000 
0.089740 17.583960 -1.272510 -1.068040 -29.600237 4.179806 -15.276861 13.616514 2.792917 3.589756 -1.008797 -10.055546 -7.208153 5.352840 8.759705 -0.240642 4.511722 3.464397 -0.138570 -0.305070 -0.303870 18.220572 -10.414207 2.487066 -7.320899 1.719679 -23.381153 3.448804 -3.561857 11.784662 0.429533 -3.050139 3.462846 0.072510 1.152580 0.425140 -3.221151 -2.938026 -6.416662 6.042031 -4.764420 1.140531 -1.020408 -5.238649 8.000298 0.006257 -2.000337 -6.350347 -4.242678 8.824522 22.544488 -3.841740 9.054210 10.447710 -17.138466 -4.740188 1.775875 -34.963683 -16.643825 0.134995 12.953699 -55.987982 -6.634885 -4.448601 3.287213 -0.364930 0.965980 -0.641560 0.340210 17.698256 4.125279 3.047037 38.726809 5.330568 -7.869646 -8.743837 61.150650 -5.417411 1.663459 -2.006223 -0.315270 0.174280 0.186580 0.137490 
0.089450 17.583450 -1.274220 -1.060197 -29.536739 4.214688 -15.276922 13.613482 2.796610 3.608424 -1.016807 -10.085299 -7.265747 5.353223 8.693708 -0.247755 4.518993 3.461038 -0.141280 -0.308880 -0.302610 18.221019 -10.409210 2.487496 -7.335672 1.728236 -23.456387 3.467293 -3.573773 11.832935 0.431080 -3.053787 3.458078 0.073960 1.153800 0.427890 -3.223104 -2.943059 -6.420307 6.109757 -4.805041 1.140978 -1.045600 -5.281354 8.061803 0.021382 -2.007938 -6.371731 -4.255458 8.831339 22.517815 -3.993140 9.143870 10.437930 -16.978098 -4.804069 1.785623 -34.672054 -16.807648 0.201860 13.843624 -56.374874 -7.092733 -4.452073 3.277606 -0.364330 0.970640 -0.642780 0.337020 17.505698 4.182175 3.067929 38.346667 5.355763 -7.924158 -9.731640 62.169514 -6.018643 1.646074 -2.004413 -0.318930 0.173720 0.189960 0.134040 
0.088270 17.582810 -1.275830 -1.034201 -29.469637 4.229481 -15.277569 13.613037 2.799134 3.616945 -1.023668 -10.108067 -7.304514 5.355878 8.666542 -0.250308 4.522000 3.458785 -0.138850 -0.306350 -0.297730 18.220700 -10.404756 2.487260 -7.358857 1.730419 -23.514769 3.478599 -3.580021 11.867901 0.430670 -3.055295 3.454120 0.076580 1.152260 0.430240 -3.222325 -2.951516 -6.422991 6.135626 -4.848596 1.142367 -1.072496 -5.326893 8.121671 0.031065 -2.013262 -6.385489 -4.267823 8.849629 22.516741 -4.086330 9.217050 10.413610 -16.806440 -4.860974 1.786239 -34.325511 -16.986701 0.279989 14.613452 -56.673514 -7.474209 -4.451975 3.272237 -0.365210 0.972510 -0.641870 0.335520 17.313771 4.233565 3.079498 37.939758 5.395832 -7.947266 -10.676348 63.077532 -6.603421 1.632516 -2.003751 -0.318570 0.171910 0.188960 0.132260 
